<?xml version="1.0" encoding="UTF-8" standalone="no"?>
<!DOCTYPE svg PUBLIC "-//W3C//DTD SVG 1.1//EN" "http://www.w3.org/Graphics/SVG/1.1/DTD/svg11.dtd">
<svg version="1.1" xmlns="http://www.w3.org/2000/svg" xmlns:xlink="http://www.w3.org/1999/xlink" preserveAspectRatio="xMidYMid meet" viewBox="119.0113345192303 189.00247805341664 83.99999999999997 65.28000000000006" width="80" height="61.28"><defs><path d="M194.37 190C197.48 190 200.01 192.53 200.01 195.65C200.01 196.77 200.01 194.52 200.01 195.65C200.01 198.76 197.48 201.29 194.37 201.29C179.5 201.29 140.53 201.29 125.65 201.29C122.54 201.29 120.01 198.76 120.01 195.65C120.01 194.52 120.01 196.77 120.01 195.65C120.01 192.53 122.54 190 125.65 190C140.53 190 179.5 190 194.37 190Z" id="eNJsZ8Kg3"></path><path d="M194.37 215C197.48 215 200.01 217.53 200.01 220.64C200.01 221.77 200.01 219.51 200.01 220.64C200.01 223.76 197.48 226.29 194.37 226.29C179.5 226.29 140.53 226.29 125.65 226.29C122.54 226.29 120.01 223.76 120.01 220.64C120.01 219.51 120.01 221.77 120.01 220.64C120.01 217.53 122.54 215 125.65 215C140.53 215 179.5 215 194.37 215Z" id="a2DqdC3JRN"></path><path d="M194.37 240C197.48 240 200.01 242.52 200.01 245.64C200.01 246.77 200.01 244.51 200.01 245.64C200.01 248.76 197.48 251.28 194.37 251.28C179.5 251.28 140.53 251.28 125.65 251.28C122.54 251.28 120.01 248.76 120.01 245.64C120.01 244.51 120.01 246.77 120.01 245.64C120.01 242.52 122.54 240 125.65 240C140.53 240 179.5 240 194.37 240Z" id="aVsnnO02n"></path></defs><g><g><use xlink:href="#eNJsZ8Kg3" opacity="1" fill="#000000" fill-opacity="1"></use></g><g><use xlink:href="#a2DqdC3JRN" opacity="1" fill="#000000" fill-opacity="1"></use></g><g><use xlink:href="#aVsnnO02n" opacity="1" fill="#000000" fill-opacity="1"></use></g></g></svg>