<?xml version="1.0" encoding="UTF-8" standalone="no"?>
<!-- Created with Inkscape (http://www.inkscape.org/) -->

<svg
   xmlns:dc="http://purl.org/dc/elements/1.1/"
   xmlns:cc="http://creativecommons.org/ns#"
   xmlns:rdf="http://www.w3.org/1999/02/22-rdf-syntax-ns#"
   xmlns:svg="http://www.w3.org/2000/svg"
   xmlns="http://www.w3.org/2000/svg"
   xmlns:sodipodi="http://sodipodi.sourceforge.net/DTD/sodipodi-0.dtd"
   xmlns:inkscape="http://www.inkscape.org/namespaces/inkscape"
   width="13.509594mm"
   height="14.165941mm"
   viewBox="0 0 13.509594 14.165941"
   version="1.1"
   id="svg8"
   inkscape:version="0.92.3 (2405546, 2018-03-11)"
   sodipodi:docname="theme-switcher-moon.svg">
  <defs
     id="defs2">
    <marker
       inkscape:stockid="Arrow2Lstart"
       orient="auto"
       refX="1"
       id="Arrow2Lstart"
       style="overflow:visible"
       inkscape:isstock="true"
       refY="-0.1">
      <path
         id="path4819"
         style="fill:#00000f;fill-opacity:1;fill-rule:evenodd;stroke:#00000f;stroke-width:0.625;stroke-linejoin:round;stroke-opacity:1"
         d="M 8.7185878,4.0337352 -2.2072895,0.01601326 8.7185884,-4.0017078 c -1.7454984,2.3720609 -1.7354408,5.6174519 -6e-7,8.035443 z"
         transform="matrix(0.3,0,0,0.3,0.3,0)"
         inkscape:connector-curvature="0" />
    </marker>
    <marker
       inkscape:stockid="Arrow2Lstart"
       orient="auto"
       refX="1"
       id="Arrow2Lstart-7"
       style="overflow:visible"
       inkscape:isstock="true"
       refY="-0.1">
      <path
         id="path4819-9"
         style="fill:#00000f;fill-opacity:1;fill-rule:evenodd;stroke:#00000f;stroke-width:0.625;stroke-linejoin:round;stroke-opacity:1"
         d="M 8.7185878,4.0337352 -2.2072895,0.01601326 8.7185884,-4.0017078 c -1.7454984,2.3720609 -1.7354408,5.6174519 -6e-7,8.035443 z"
         transform="matrix(0.3,0,0,0.3,0.3,0)"
         inkscape:connector-curvature="0" />
    </marker>
  </defs>
  <sodipodi:namedview
     id="base"
     pagecolor="#ffffff"
     bordercolor="#666666"
     borderopacity="1.0"
     inkscape:pageopacity="0.0"
     inkscape:pageshadow="2"
     inkscape:zoom="1.979899"
     inkscape:cx="-122.68578"
     inkscape:cy="-34.841124"
     inkscape:document-units="mm"
     inkscape:current-layer="layer1"
     showgrid="false"
     inkscape:window-width="1920"
     inkscape:window-height="1015"
     inkscape:window-x="0"
     inkscape:window-y="30"
     inkscape:window-maximized="0" />
  <metadata
     id="metadata5">
    <rdf:RDF>
      <cc:Work
         rdf:about="">
        <dc:format>image/svg+xml</dc:format>
        <dc:type
           rdf:resource="http://purl.org/dc/dcmitype/StillImage" />
        <dc:title></dc:title>
      </cc:Work>
    </rdf:RDF>
  </metadata>
  <g
     inkscape:label="Layer 1"
     inkscape:groupmode="layer"
     id="layer1"
     transform="translate(-133.69591,-59.597941)">
    <path
       style="opacity:0.98000004;vector-effect:none;fill:none;fill-opacity:1;stroke:#00000f;stroke-width:1.05833328;stroke-linecap:round;stroke-linejoin:round;stroke-miterlimit:4;stroke-dasharray:none;stroke-dashoffset:0;stroke-opacity:1"
       d="m 140.12254,60.12711 a 6.5537713,6.5537713 0 0 0 -0.13087,0.0046 5.6606021,5.6606021 0 0 1 1.69862,4.035792 5.6606021,5.6606021 0 0 1 -5.66076,5.660761 5.6606021,5.6606021 0 0 1 -1.8045,-0.301188 6.5537713,6.5537713 0 0 0 5.89751,3.707641 6.5537713,6.5537713 0 0 0 6.5538,-6.553803 6.5537713,6.5537713 0 0 0 -6.5538,-6.553805 z"
       id="path817-2-9-2"
       inkscape:connector-curvature="0" />
  </g>
</svg>
